<mxfile host="app.diagrams.net" agent="Mozilla/5.0 (Macintosh; Intel Mac OS X 10_15_7) AppleWebKit/605.1.15 (KHTML, like Gecko) Version/17.5 Safari/605.1.15" version="24.8.6">
  <diagram id="C5RBs43oDa-KdzZeNtuy" name="Page-1">
    <mxGraphModel dx="1870" dy="1550" grid="1" gridSize="10" guides="1" tooltips="1" connect="1" arrows="1" fold="1" page="1" pageScale="1" pageWidth="827" pageHeight="1169" math="0" shadow="0">
      <root>
        <mxCell id="WIyWlLk6GJQsqaUBKTNV-0" />
        <mxCell id="WIyWlLk6GJQsqaUBKTNV-1" parent="WIyWlLk6GJQsqaUBKTNV-0" />
        <mxCell id="VuneRpGB9uoMBUvt6ywJ-2" value="" style="edgeStyle=orthogonalEdgeStyle;rounded=0;orthogonalLoop=1;jettySize=auto;html=1;" parent="WIyWlLk6GJQsqaUBKTNV-1" source="VuneRpGB9uoMBUvt6ywJ-0" target="VuneRpGB9uoMBUvt6ywJ-1" edge="1">
          <mxGeometry relative="1" as="geometry" />
        </mxCell>
        <mxCell id="VuneRpGB9uoMBUvt6ywJ-0" value="Початок" style="ellipse;whiteSpace=wrap;html=1;" parent="WIyWlLk6GJQsqaUBKTNV-1" vertex="1">
          <mxGeometry x="155" y="10" width="120" height="80" as="geometry" />
        </mxCell>
        <mxCell id="VuneRpGB9uoMBUvt6ywJ-12" value="" style="edgeStyle=orthogonalEdgeStyle;rounded=0;orthogonalLoop=1;jettySize=auto;html=1;" parent="WIyWlLk6GJQsqaUBKTNV-1" source="VuneRpGB9uoMBUvt6ywJ-1" target="VuneRpGB9uoMBUvt6ywJ-11" edge="1">
          <mxGeometry relative="1" as="geometry" />
        </mxCell>
        <mxCell id="VuneRpGB9uoMBUvt6ywJ-1" value="&lt;span style=&quot;background-color: rgb(255, 255, 255);&quot;&gt;Введення&amp;nbsp;&lt;span style=&quot;font-family: Menlo, Monaco, &amp;quot;Courier New&amp;quot;, monospace; text-align: start; white-space: pre;&quot;&gt;queryCount&lt;/span&gt;&lt;/span&gt;" style="shape=parallelogram;perimeter=parallelogramPerimeter;whiteSpace=wrap;html=1;fixedSize=1;" parent="WIyWlLk6GJQsqaUBKTNV-1" vertex="1">
          <mxGeometry x="155" y="120" width="120" height="60" as="geometry" />
        </mxCell>
        <mxCell id="VuneRpGB9uoMBUvt6ywJ-6" value="" style="edgeStyle=orthogonalEdgeStyle;rounded=0;orthogonalLoop=1;jettySize=auto;html=1;" parent="WIyWlLk6GJQsqaUBKTNV-1" source="VuneRpGB9uoMBUvt6ywJ-3" target="VuneRpGB9uoMBUvt6ywJ-5" edge="1">
          <mxGeometry relative="1" as="geometry" />
        </mxCell>
        <mxCell id="VuneRpGB9uoMBUvt6ywJ-20" value="" style="edgeStyle=orthogonalEdgeStyle;rounded=0;orthogonalLoop=1;jettySize=auto;html=1;" parent="WIyWlLk6GJQsqaUBKTNV-1" source="VuneRpGB9uoMBUvt6ywJ-3" target="VuneRpGB9uoMBUvt6ywJ-19" edge="1">
          <mxGeometry relative="1" as="geometry" />
        </mxCell>
        <mxCell id="VuneRpGB9uoMBUvt6ywJ-3" value="command==&quot;insert&quot;" style="rhombus;whiteSpace=wrap;html=1;" parent="WIyWlLk6GJQsqaUBKTNV-1" vertex="1">
          <mxGeometry x="160" y="330" width="110" height="80" as="geometry" />
        </mxCell>
        <mxCell id="VuneRpGB9uoMBUvt6ywJ-8" value="" style="edgeStyle=orthogonalEdgeStyle;rounded=0;orthogonalLoop=1;jettySize=auto;html=1;" parent="WIyWlLk6GJQsqaUBKTNV-1" source="VuneRpGB9uoMBUvt6ywJ-5" target="VuneRpGB9uoMBUvt6ywJ-7" edge="1">
          <mxGeometry relative="1" as="geometry" />
        </mxCell>
        <mxCell id="VuneRpGB9uoMBUvt6ywJ-5" value="cin &amp;gt;&amp;gt; index &amp;gt;&amp;gt; chys" style="shape=parallelogram;perimeter=parallelogramPerimeter;whiteSpace=wrap;html=1;fixedSize=1;" parent="WIyWlLk6GJQsqaUBKTNV-1" vertex="1">
          <mxGeometry x="299" y="340" width="120" height="60" as="geometry" />
        </mxCell>
        <mxCell id="VuneRpGB9uoMBUvt6ywJ-10" value="" style="edgeStyle=orthogonalEdgeStyle;rounded=0;orthogonalLoop=1;jettySize=auto;html=1;" parent="WIyWlLk6GJQsqaUBKTNV-1" source="VuneRpGB9uoMBUvt6ywJ-7" target="VuneRpGB9uoMBUvt6ywJ-9" edge="1">
          <mxGeometry relative="1" as="geometry" />
        </mxCell>
        <mxCell id="VuneRpGB9uoMBUvt6ywJ-16" value="" style="edgeStyle=orthogonalEdgeStyle;rounded=0;orthogonalLoop=1;jettySize=auto;html=1;" parent="WIyWlLk6GJQsqaUBKTNV-1" source="VuneRpGB9uoMBUvt6ywJ-7" target="VuneRpGB9uoMBUvt6ywJ-15" edge="1">
          <mxGeometry relative="1" as="geometry" />
        </mxCell>
        <mxCell id="VuneRpGB9uoMBUvt6ywJ-7" value="I &amp;lt; chys&amp;nbsp;" style="rhombus;whiteSpace=wrap;html=1;" parent="WIyWlLk6GJQsqaUBKTNV-1" vertex="1">
          <mxGeometry x="445" y="330" width="80" height="80" as="geometry" />
        </mxCell>
        <mxCell id="VuneRpGB9uoMBUvt6ywJ-14" style="edgeStyle=orthogonalEdgeStyle;rounded=0;orthogonalLoop=1;jettySize=auto;html=1;exitX=0.5;exitY=0;exitDx=0;exitDy=0;" parent="WIyWlLk6GJQsqaUBKTNV-1" source="VuneRpGB9uoMBUvt6ywJ-9" edge="1">
          <mxGeometry relative="1" as="geometry">
            <mxPoint x="430" y="370" as="targetPoint" />
            <Array as="points">
              <mxPoint x="595" y="320" />
              <mxPoint x="430" y="320" />
            </Array>
          </mxGeometry>
        </mxCell>
        <mxCell id="VuneRpGB9uoMBUvt6ywJ-9" value="cin &amp;gt;&amp;gt; elements[j]" style="shape=parallelogram;perimeter=parallelogramPerimeter;whiteSpace=wrap;html=1;fixedSize=1;" parent="WIyWlLk6GJQsqaUBKTNV-1" vertex="1">
          <mxGeometry x="535" y="340" width="135" height="60" as="geometry" />
        </mxCell>
        <mxCell id="VuneRpGB9uoMBUvt6ywJ-13" value="" style="edgeStyle=orthogonalEdgeStyle;rounded=0;orthogonalLoop=1;jettySize=auto;html=1;" parent="WIyWlLk6GJQsqaUBKTNV-1" source="VuneRpGB9uoMBUvt6ywJ-11" target="VuneRpGB9uoMBUvt6ywJ-3" edge="1">
          <mxGeometry relative="1" as="geometry" />
        </mxCell>
        <mxCell id="VuneRpGB9uoMBUvt6ywJ-56" style="edgeStyle=orthogonalEdgeStyle;rounded=0;orthogonalLoop=1;jettySize=auto;html=1;entryX=0.5;entryY=0;entryDx=0;entryDy=0;" parent="WIyWlLk6GJQsqaUBKTNV-1" source="VuneRpGB9uoMBUvt6ywJ-11" target="VuneRpGB9uoMBUvt6ywJ-49" edge="1">
          <mxGeometry relative="1" as="geometry" />
        </mxCell>
        <mxCell id="VuneRpGB9uoMBUvt6ywJ-11" value="queryCount--" style="rhombus;whiteSpace=wrap;html=1;" parent="WIyWlLk6GJQsqaUBKTNV-1" vertex="1">
          <mxGeometry x="175" y="210" width="80" height="80" as="geometry" />
        </mxCell>
        <mxCell id="VuneRpGB9uoMBUvt6ywJ-18" value="" style="edgeStyle=orthogonalEdgeStyle;rounded=0;orthogonalLoop=1;jettySize=auto;html=1;" parent="WIyWlLk6GJQsqaUBKTNV-1" source="VuneRpGB9uoMBUvt6ywJ-15" target="VuneRpGB9uoMBUvt6ywJ-17" edge="1">
          <mxGeometry relative="1" as="geometry" />
        </mxCell>
        <mxCell id="VuneRpGB9uoMBUvt6ywJ-15" value="insert" style="shape=process;whiteSpace=wrap;html=1;backgroundOutline=1;" parent="WIyWlLk6GJQsqaUBKTNV-1" vertex="1">
          <mxGeometry x="425" y="430" width="120" height="60" as="geometry" />
        </mxCell>
        <mxCell id="VuneRpGB9uoMBUvt6ywJ-55" style="edgeStyle=orthogonalEdgeStyle;rounded=0;orthogonalLoop=1;jettySize=auto;html=1;" parent="WIyWlLk6GJQsqaUBKTNV-1" source="VuneRpGB9uoMBUvt6ywJ-17" edge="1">
          <mxGeometry relative="1" as="geometry">
            <mxPoint x="730" y="1000" as="targetPoint" />
          </mxGeometry>
        </mxCell>
        <mxCell id="VuneRpGB9uoMBUvt6ywJ-17" value="delete[] elements" style="whiteSpace=wrap;html=1;" parent="WIyWlLk6GJQsqaUBKTNV-1" vertex="1">
          <mxGeometry x="560" y="430" width="120" height="60" as="geometry" />
        </mxCell>
        <mxCell id="VuneRpGB9uoMBUvt6ywJ-22" value="" style="edgeStyle=orthogonalEdgeStyle;rounded=0;orthogonalLoop=1;jettySize=auto;html=1;" parent="WIyWlLk6GJQsqaUBKTNV-1" source="VuneRpGB9uoMBUvt6ywJ-19" target="VuneRpGB9uoMBUvt6ywJ-21" edge="1">
          <mxGeometry relative="1" as="geometry" />
        </mxCell>
        <mxCell id="VuneRpGB9uoMBUvt6ywJ-26" value="" style="edgeStyle=orthogonalEdgeStyle;rounded=0;orthogonalLoop=1;jettySize=auto;html=1;" parent="WIyWlLk6GJQsqaUBKTNV-1" source="VuneRpGB9uoMBUvt6ywJ-19" target="VuneRpGB9uoMBUvt6ywJ-25" edge="1">
          <mxGeometry relative="1" as="geometry" />
        </mxCell>
        <mxCell id="VuneRpGB9uoMBUvt6ywJ-19" value="command==&quot;erase&quot;" style="rhombus;whiteSpace=wrap;html=1;" parent="WIyWlLk6GJQsqaUBKTNV-1" vertex="1">
          <mxGeometry x="160" y="530" width="110" height="80" as="geometry" />
        </mxCell>
        <mxCell id="VuneRpGB9uoMBUvt6ywJ-24" value="" style="edgeStyle=orthogonalEdgeStyle;rounded=0;orthogonalLoop=1;jettySize=auto;html=1;" parent="WIyWlLk6GJQsqaUBKTNV-1" source="VuneRpGB9uoMBUvt6ywJ-21" target="VuneRpGB9uoMBUvt6ywJ-23" edge="1">
          <mxGeometry relative="1" as="geometry" />
        </mxCell>
        <mxCell id="VuneRpGB9uoMBUvt6ywJ-21" value="cin &amp;gt;&amp;gt; index &amp;gt;&amp;gt; chys" style="shape=parallelogram;perimeter=parallelogramPerimeter;whiteSpace=wrap;html=1;fixedSize=1;" parent="WIyWlLk6GJQsqaUBKTNV-1" vertex="1">
          <mxGeometry x="290" y="540" width="120" height="60" as="geometry" />
        </mxCell>
        <mxCell id="VuneRpGB9uoMBUvt6ywJ-54" style="edgeStyle=orthogonalEdgeStyle;rounded=0;orthogonalLoop=1;jettySize=auto;html=1;entryX=0.5;entryY=0;entryDx=0;entryDy=0;" parent="WIyWlLk6GJQsqaUBKTNV-1" source="VuneRpGB9uoMBUvt6ywJ-23" target="VuneRpGB9uoMBUvt6ywJ-49" edge="1">
          <mxGeometry relative="1" as="geometry" />
        </mxCell>
        <mxCell id="VuneRpGB9uoMBUvt6ywJ-23" value="erase" style="shape=process;whiteSpace=wrap;html=1;backgroundOutline=1;" parent="WIyWlLk6GJQsqaUBKTNV-1" vertex="1">
          <mxGeometry x="430" y="540" width="120" height="60" as="geometry" />
        </mxCell>
        <mxCell id="VuneRpGB9uoMBUvt6ywJ-30" value="" style="edgeStyle=orthogonalEdgeStyle;rounded=0;orthogonalLoop=1;jettySize=auto;html=1;" parent="WIyWlLk6GJQsqaUBKTNV-1" source="VuneRpGB9uoMBUvt6ywJ-25" target="VuneRpGB9uoMBUvt6ywJ-29" edge="1">
          <mxGeometry relative="1" as="geometry" />
        </mxCell>
        <mxCell id="VuneRpGB9uoMBUvt6ywJ-34" value="" style="edgeStyle=orthogonalEdgeStyle;rounded=0;orthogonalLoop=1;jettySize=auto;html=1;" parent="WIyWlLk6GJQsqaUBKTNV-1" source="VuneRpGB9uoMBUvt6ywJ-25" target="VuneRpGB9uoMBUvt6ywJ-33" edge="1">
          <mxGeometry relative="1" as="geometry" />
        </mxCell>
        <mxCell id="VuneRpGB9uoMBUvt6ywJ-25" value="command==&quot;size&quot;" style="rhombus;whiteSpace=wrap;html=1;" parent="WIyWlLk6GJQsqaUBKTNV-1" vertex="1">
          <mxGeometry x="160" y="640" width="110" height="80" as="geometry" />
        </mxCell>
        <mxCell id="VuneRpGB9uoMBUvt6ywJ-32" value="" style="edgeStyle=orthogonalEdgeStyle;rounded=0;orthogonalLoop=1;jettySize=auto;html=1;" parent="WIyWlLk6GJQsqaUBKTNV-1" source="VuneRpGB9uoMBUvt6ywJ-29" target="VuneRpGB9uoMBUvt6ywJ-31" edge="1">
          <mxGeometry relative="1" as="geometry" />
        </mxCell>
        <mxCell id="VuneRpGB9uoMBUvt6ywJ-29" value="size" style="shape=process;whiteSpace=wrap;html=1;backgroundOutline=1;" parent="WIyWlLk6GJQsqaUBKTNV-1" vertex="1">
          <mxGeometry x="294" y="650" width="120" height="60" as="geometry" />
        </mxCell>
        <mxCell id="VuneRpGB9uoMBUvt6ywJ-53" style="edgeStyle=orthogonalEdgeStyle;rounded=0;orthogonalLoop=1;jettySize=auto;html=1;entryX=0.5;entryY=0;entryDx=0;entryDy=0;" parent="WIyWlLk6GJQsqaUBKTNV-1" source="VuneRpGB9uoMBUvt6ywJ-31" target="VuneRpGB9uoMBUvt6ywJ-49" edge="1">
          <mxGeometry relative="1" as="geometry">
            <mxPoint x="730" y="990" as="targetPoint" />
          </mxGeometry>
        </mxCell>
        <mxCell id="VuneRpGB9uoMBUvt6ywJ-31" value="Вивід size" style="shape=parallelogram;perimeter=parallelogramPerimeter;whiteSpace=wrap;html=1;fixedSize=1;" parent="WIyWlLk6GJQsqaUBKTNV-1" vertex="1">
          <mxGeometry x="445" y="650" width="120" height="60" as="geometry" />
        </mxCell>
        <mxCell id="VuneRpGB9uoMBUvt6ywJ-36" value="" style="edgeStyle=orthogonalEdgeStyle;rounded=0;orthogonalLoop=1;jettySize=auto;html=1;" parent="WIyWlLk6GJQsqaUBKTNV-1" source="VuneRpGB9uoMBUvt6ywJ-33" target="VuneRpGB9uoMBUvt6ywJ-35" edge="1">
          <mxGeometry relative="1" as="geometry" />
        </mxCell>
        <mxCell id="VuneRpGB9uoMBUvt6ywJ-40" value="" style="edgeStyle=orthogonalEdgeStyle;rounded=0;orthogonalLoop=1;jettySize=auto;html=1;" parent="WIyWlLk6GJQsqaUBKTNV-1" source="VuneRpGB9uoMBUvt6ywJ-33" target="VuneRpGB9uoMBUvt6ywJ-39" edge="1">
          <mxGeometry relative="1" as="geometry" />
        </mxCell>
        <mxCell id="VuneRpGB9uoMBUvt6ywJ-33" value="command==&quot;capacity&quot;" style="rhombus;whiteSpace=wrap;html=1;" parent="WIyWlLk6GJQsqaUBKTNV-1" vertex="1">
          <mxGeometry x="160" y="760" width="110" height="80" as="geometry" />
        </mxCell>
        <mxCell id="VuneRpGB9uoMBUvt6ywJ-38" value="" style="edgeStyle=orthogonalEdgeStyle;rounded=0;orthogonalLoop=1;jettySize=auto;html=1;" parent="WIyWlLk6GJQsqaUBKTNV-1" source="VuneRpGB9uoMBUvt6ywJ-35" target="VuneRpGB9uoMBUvt6ywJ-37" edge="1">
          <mxGeometry relative="1" as="geometry" />
        </mxCell>
        <mxCell id="VuneRpGB9uoMBUvt6ywJ-35" value="capacity" style="shape=process;whiteSpace=wrap;html=1;backgroundOutline=1;" parent="WIyWlLk6GJQsqaUBKTNV-1" vertex="1">
          <mxGeometry x="290" y="770" width="120" height="60" as="geometry" />
        </mxCell>
        <mxCell id="VuneRpGB9uoMBUvt6ywJ-52" style="edgeStyle=orthogonalEdgeStyle;rounded=0;orthogonalLoop=1;jettySize=auto;html=1;" parent="WIyWlLk6GJQsqaUBKTNV-1" source="VuneRpGB9uoMBUvt6ywJ-37" edge="1">
          <mxGeometry relative="1" as="geometry">
            <mxPoint x="730" y="1000" as="targetPoint" />
          </mxGeometry>
        </mxCell>
        <mxCell id="VuneRpGB9uoMBUvt6ywJ-37" value="Вивід capacity" style="shape=parallelogram;perimeter=parallelogramPerimeter;whiteSpace=wrap;html=1;fixedSize=1;" parent="WIyWlLk6GJQsqaUBKTNV-1" vertex="1">
          <mxGeometry x="440" y="770" width="120" height="60" as="geometry" />
        </mxCell>
        <mxCell id="VuneRpGB9uoMBUvt6ywJ-42" value="" style="edgeStyle=orthogonalEdgeStyle;rounded=0;orthogonalLoop=1;jettySize=auto;html=1;" parent="WIyWlLk6GJQsqaUBKTNV-1" source="VuneRpGB9uoMBUvt6ywJ-39" target="VuneRpGB9uoMBUvt6ywJ-41" edge="1">
          <mxGeometry relative="1" as="geometry" />
        </mxCell>
        <mxCell id="VuneRpGB9uoMBUvt6ywJ-46" value="" style="edgeStyle=orthogonalEdgeStyle;rounded=0;orthogonalLoop=1;jettySize=auto;html=1;" parent="WIyWlLk6GJQsqaUBKTNV-1" source="VuneRpGB9uoMBUvt6ywJ-39" target="VuneRpGB9uoMBUvt6ywJ-45" edge="1">
          <mxGeometry relative="1" as="geometry" />
        </mxCell>
        <mxCell id="VuneRpGB9uoMBUvt6ywJ-39" value="command==&quot;get&quot;" style="rhombus;whiteSpace=wrap;html=1;" parent="WIyWlLk6GJQsqaUBKTNV-1" vertex="1">
          <mxGeometry x="160" y="880" width="110" height="80" as="geometry" />
        </mxCell>
        <mxCell id="VuneRpGB9uoMBUvt6ywJ-44" value="" style="edgeStyle=orthogonalEdgeStyle;rounded=0;orthogonalLoop=1;jettySize=auto;html=1;" parent="WIyWlLk6GJQsqaUBKTNV-1" source="VuneRpGB9uoMBUvt6ywJ-41" target="VuneRpGB9uoMBUvt6ywJ-43" edge="1">
          <mxGeometry relative="1" as="geometry" />
        </mxCell>
        <mxCell id="VuneRpGB9uoMBUvt6ywJ-41" value="cin &amp;gt;&amp;gt; index &amp;gt;&amp;gt;&amp;nbsp;&lt;br&gt;chys&lt;div&gt;&lt;br&gt;&lt;/div&gt;" style="shape=parallelogram;perimeter=parallelogramPerimeter;whiteSpace=wrap;html=1;fixedSize=1;" parent="WIyWlLk6GJQsqaUBKTNV-1" vertex="1">
          <mxGeometry x="290" y="890" width="120" height="60" as="geometry" />
        </mxCell>
        <mxCell id="VuneRpGB9uoMBUvt6ywJ-51" style="edgeStyle=orthogonalEdgeStyle;rounded=0;orthogonalLoop=1;jettySize=auto;html=1;entryX=0.5;entryY=0;entryDx=0;entryDy=0;" parent="WIyWlLk6GJQsqaUBKTNV-1" source="VuneRpGB9uoMBUvt6ywJ-43" target="VuneRpGB9uoMBUvt6ywJ-49" edge="1">
          <mxGeometry relative="1" as="geometry">
            <Array as="points">
              <mxPoint x="730" y="920" />
            </Array>
          </mxGeometry>
        </mxCell>
        <mxCell id="VuneRpGB9uoMBUvt6ywJ-43" value="" style="whiteSpace=wrap;html=1;" parent="WIyWlLk6GJQsqaUBKTNV-1" vertex="1">
          <mxGeometry x="430" y="890" width="120" height="60" as="geometry" />
        </mxCell>
        <mxCell id="VuneRpGB9uoMBUvt6ywJ-48" value="" style="edgeStyle=orthogonalEdgeStyle;rounded=0;orthogonalLoop=1;jettySize=auto;html=1;" parent="WIyWlLk6GJQsqaUBKTNV-1" source="VuneRpGB9uoMBUvt6ywJ-45" edge="1">
          <mxGeometry relative="1" as="geometry">
            <mxPoint x="310" y="1110" as="targetPoint" />
          </mxGeometry>
        </mxCell>
        <mxCell id="VuneRpGB9uoMBUvt6ywJ-45" value="command==&quot;print&quot;" style="rhombus;whiteSpace=wrap;html=1;" parent="WIyWlLk6GJQsqaUBKTNV-1" vertex="1">
          <mxGeometry x="160" y="1070" width="110" height="80" as="geometry" />
        </mxCell>
        <mxCell id="VuneRpGB9uoMBUvt6ywJ-50" style="edgeStyle=orthogonalEdgeStyle;rounded=0;orthogonalLoop=1;jettySize=auto;html=1;entryX=0;entryY=0.5;entryDx=0;entryDy=0;exitX=1;exitY=0.5;exitDx=0;exitDy=0;" parent="WIyWlLk6GJQsqaUBKTNV-1" source="5X4dIlzUBzXJxATVt42P-10" target="VuneRpGB9uoMBUvt6ywJ-49" edge="1">
          <mxGeometry relative="1" as="geometry">
            <mxPoint x="464" y="1110" as="sourcePoint" />
          </mxGeometry>
        </mxCell>
        <mxCell id="VuneRpGB9uoMBUvt6ywJ-49" value="Кінець" style="ellipse;whiteSpace=wrap;html=1;" parent="WIyWlLk6GJQsqaUBKTNV-1" vertex="1">
          <mxGeometry x="670" y="1070" width="120" height="80" as="geometry" />
        </mxCell>
        <mxCell id="VuneRpGB9uoMBUvt6ywJ-69" value="" style="edgeStyle=orthogonalEdgeStyle;rounded=0;orthogonalLoop=1;jettySize=auto;html=1;" parent="WIyWlLk6GJQsqaUBKTNV-1" source="VuneRpGB9uoMBUvt6ywJ-67" target="VuneRpGB9uoMBUvt6ywJ-68" edge="1">
          <mxGeometry relative="1" as="geometry" />
        </mxCell>
        <mxCell id="VuneRpGB9uoMBUvt6ywJ-67" value="insert" style="ellipse;whiteSpace=wrap;html=1;" parent="WIyWlLk6GJQsqaUBKTNV-1" vertex="1">
          <mxGeometry x="890" y="150" width="120" height="80" as="geometry" />
        </mxCell>
        <mxCell id="VuneRpGB9uoMBUvt6ywJ-71" value="" style="edgeStyle=orthogonalEdgeStyle;rounded=0;orthogonalLoop=1;jettySize=auto;html=1;" parent="WIyWlLk6GJQsqaUBKTNV-1" source="VuneRpGB9uoMBUvt6ywJ-68" target="VuneRpGB9uoMBUvt6ywJ-70" edge="1">
          <mxGeometry relative="1" as="geometry" />
        </mxCell>
        <mxCell id="VuneRpGB9uoMBUvt6ywJ-76" value="" style="edgeStyle=orthogonalEdgeStyle;rounded=0;orthogonalLoop=1;jettySize=auto;html=1;" parent="WIyWlLk6GJQsqaUBKTNV-1" source="VuneRpGB9uoMBUvt6ywJ-68" target="VuneRpGB9uoMBUvt6ywJ-75" edge="1">
          <mxGeometry relative="1" as="geometry" />
        </mxCell>
        <mxCell id="VuneRpGB9uoMBUvt6ywJ-68" value="size+chys &amp;gt; capacity" style="rhombus;whiteSpace=wrap;html=1;" parent="WIyWlLk6GJQsqaUBKTNV-1" vertex="1">
          <mxGeometry x="910" y="270" width="80" height="80" as="geometry" />
        </mxCell>
        <mxCell id="VuneRpGB9uoMBUvt6ywJ-73" value="" style="edgeStyle=orthogonalEdgeStyle;rounded=0;orthogonalLoop=1;jettySize=auto;html=1;" parent="WIyWlLk6GJQsqaUBKTNV-1" source="VuneRpGB9uoMBUvt6ywJ-70" edge="1">
          <mxGeometry relative="1" as="geometry">
            <mxPoint x="1200" y="310" as="targetPoint" />
            <Array as="points">
              <mxPoint x="1140" y="310" />
              <mxPoint x="1140" y="310" />
            </Array>
          </mxGeometry>
        </mxCell>
        <mxCell id="VuneRpGB9uoMBUvt6ywJ-70" value="capacity *= 2" style="whiteSpace=wrap;html=1;" parent="WIyWlLk6GJQsqaUBKTNV-1" vertex="1">
          <mxGeometry x="1010" y="280" width="120" height="60" as="geometry" />
        </mxCell>
        <mxCell id="VuneRpGB9uoMBUvt6ywJ-77" style="edgeStyle=orthogonalEdgeStyle;rounded=0;orthogonalLoop=1;jettySize=auto;html=1;" parent="WIyWlLk6GJQsqaUBKTNV-1" edge="1">
          <mxGeometry relative="1" as="geometry">
            <mxPoint x="950" y="250" as="targetPoint" />
            <Array as="points">
              <mxPoint x="1200" y="250" />
            </Array>
            <mxPoint x="1200" y="310" as="sourcePoint" />
          </mxGeometry>
        </mxCell>
        <mxCell id="VuneRpGB9uoMBUvt6ywJ-79" value="" style="edgeStyle=orthogonalEdgeStyle;rounded=0;orthogonalLoop=1;jettySize=auto;html=1;" parent="WIyWlLk6GJQsqaUBKTNV-1" source="VuneRpGB9uoMBUvt6ywJ-75" target="VuneRpGB9uoMBUvt6ywJ-78" edge="1">
          <mxGeometry relative="1" as="geometry" />
        </mxCell>
        <mxCell id="VuneRpGB9uoMBUvt6ywJ-81" style="edgeStyle=orthogonalEdgeStyle;rounded=0;orthogonalLoop=1;jettySize=auto;html=1;exitX=1;exitY=0.5;exitDx=0;exitDy=0;" parent="WIyWlLk6GJQsqaUBKTNV-1" source="VuneRpGB9uoMBUvt6ywJ-75" edge="1">
          <mxGeometry relative="1" as="geometry">
            <mxPoint x="950" y="730" as="targetPoint" />
            <Array as="points">
              <mxPoint x="990" y="580" />
              <mxPoint x="1020" y="580" />
              <mxPoint x="1020" y="660" />
              <mxPoint x="950" y="660" />
            </Array>
          </mxGeometry>
        </mxCell>
        <mxCell id="VuneRpGB9uoMBUvt6ywJ-75" value="I &amp;lt; index" style="rhombus;whiteSpace=wrap;html=1;" parent="WIyWlLk6GJQsqaUBKTNV-1" vertex="1">
          <mxGeometry x="910" y="490" width="80" height="80" as="geometry" />
        </mxCell>
        <mxCell id="VuneRpGB9uoMBUvt6ywJ-80" style="edgeStyle=orthogonalEdgeStyle;rounded=0;orthogonalLoop=1;jettySize=auto;html=1;" parent="WIyWlLk6GJQsqaUBKTNV-1" source="VuneRpGB9uoMBUvt6ywJ-78" edge="1">
          <mxGeometry relative="1" as="geometry">
            <mxPoint x="950" y="470" as="targetPoint" />
            <Array as="points">
              <mxPoint x="870" y="620" />
              <mxPoint x="870" y="531" />
              <mxPoint x="871" y="531" />
              <mxPoint x="871" y="470" />
            </Array>
          </mxGeometry>
        </mxCell>
        <mxCell id="VuneRpGB9uoMBUvt6ywJ-82" value="" style="edgeStyle=orthogonalEdgeStyle;rounded=0;orthogonalLoop=1;jettySize=auto;html=1;" parent="WIyWlLk6GJQsqaUBKTNV-1" source="VuneRpGB9uoMBUvt6ywJ-78" target="VuneRpGB9uoMBUvt6ywJ-75" edge="1">
          <mxGeometry relative="1" as="geometry" />
        </mxCell>
        <mxCell id="VuneRpGB9uoMBUvt6ywJ-78" value="temp[i] =data[i]" style="whiteSpace=wrap;html=1;" parent="WIyWlLk6GJQsqaUBKTNV-1" vertex="1">
          <mxGeometry x="890" y="590" width="120" height="60" as="geometry" />
        </mxCell>
        <mxCell id="VuneRpGB9uoMBUvt6ywJ-85" value="" style="edgeStyle=orthogonalEdgeStyle;rounded=0;orthogonalLoop=1;jettySize=auto;html=1;" parent="WIyWlLk6GJQsqaUBKTNV-1" source="VuneRpGB9uoMBUvt6ywJ-83" target="VuneRpGB9uoMBUvt6ywJ-84" edge="1">
          <mxGeometry relative="1" as="geometry" />
        </mxCell>
        <mxCell id="VuneRpGB9uoMBUvt6ywJ-88" style="edgeStyle=orthogonalEdgeStyle;rounded=0;orthogonalLoop=1;jettySize=auto;html=1;exitX=1;exitY=0.5;exitDx=0;exitDy=0;" parent="WIyWlLk6GJQsqaUBKTNV-1" source="VuneRpGB9uoMBUvt6ywJ-83" edge="1">
          <mxGeometry relative="1" as="geometry">
            <mxPoint x="950" y="1010" as="targetPoint" />
            <Array as="points">
              <mxPoint x="1020" y="770" />
              <mxPoint x="1020" y="900" />
              <mxPoint x="950" y="900" />
            </Array>
          </mxGeometry>
        </mxCell>
        <mxCell id="VuneRpGB9uoMBUvt6ywJ-83" value="i &amp;lt; chys" style="rhombus;whiteSpace=wrap;html=1;" parent="WIyWlLk6GJQsqaUBKTNV-1" vertex="1">
          <mxGeometry x="910" y="730" width="80" height="80" as="geometry" />
        </mxCell>
        <mxCell id="VuneRpGB9uoMBUvt6ywJ-86" style="edgeStyle=orthogonalEdgeStyle;rounded=0;orthogonalLoop=1;jettySize=auto;html=1;" parent="WIyWlLk6GJQsqaUBKTNV-1" source="VuneRpGB9uoMBUvt6ywJ-84" edge="1">
          <mxGeometry relative="1" as="geometry">
            <mxPoint x="950" y="710" as="targetPoint" />
            <Array as="points">
              <mxPoint x="870" y="860" />
              <mxPoint x="870" y="781" />
              <mxPoint x="871" y="710" />
            </Array>
          </mxGeometry>
        </mxCell>
        <mxCell id="VuneRpGB9uoMBUvt6ywJ-84" value="&lt;div style=&quot;text-align: start; font-family: Menlo, Monaco, &amp;quot;Courier New&amp;quot;, monospace; line-height: 18px; white-space: pre;&quot;&gt;&lt;span style=&quot;background-color: rgb(255, 255, 255);&quot;&gt;temp[index + i] = elements[i]&lt;/span&gt;&lt;/div&gt;" style="whiteSpace=wrap;html=1;" parent="WIyWlLk6GJQsqaUBKTNV-1" vertex="1">
          <mxGeometry x="890" y="830" width="120" height="60" as="geometry" />
        </mxCell>
        <mxCell id="VuneRpGB9uoMBUvt6ywJ-102" value="" style="edgeStyle=orthogonalEdgeStyle;rounded=0;orthogonalLoop=1;jettySize=auto;html=1;" parent="WIyWlLk6GJQsqaUBKTNV-1" source="VuneRpGB9uoMBUvt6ywJ-100" edge="1">
          <mxGeometry relative="1" as="geometry">
            <mxPoint x="1450" y="370" as="targetPoint" />
          </mxGeometry>
        </mxCell>
        <mxCell id="VuneRpGB9uoMBUvt6ywJ-100" value="erase" style="ellipse;whiteSpace=wrap;html=1;" parent="WIyWlLk6GJQsqaUBKTNV-1" vertex="1">
          <mxGeometry x="1390" y="260" width="120" height="80" as="geometry" />
        </mxCell>
        <mxCell id="VuneRpGB9uoMBUvt6ywJ-115" value="" style="edgeStyle=orthogonalEdgeStyle;rounded=0;orthogonalLoop=1;jettySize=auto;html=1;" parent="WIyWlLk6GJQsqaUBKTNV-1" source="VuneRpGB9uoMBUvt6ywJ-113" target="VuneRpGB9uoMBUvt6ywJ-114" edge="1">
          <mxGeometry relative="1" as="geometry" />
        </mxCell>
        <mxCell id="VuneRpGB9uoMBUvt6ywJ-113" value="capacity" style="ellipse;whiteSpace=wrap;html=1;" parent="WIyWlLk6GJQsqaUBKTNV-1" vertex="1">
          <mxGeometry x="1672.5" y="430" width="120" height="80" as="geometry" />
        </mxCell>
        <mxCell id="VuneRpGB9uoMBUvt6ywJ-114" value="return capacity" style="ellipse;whiteSpace=wrap;html=1;" parent="WIyWlLk6GJQsqaUBKTNV-1" vertex="1">
          <mxGeometry x="1660" y="540" width="145" height="90" as="geometry" />
        </mxCell>
        <mxCell id="5X4dIlzUBzXJxATVt42P-0" value="" style="edgeStyle=orthogonalEdgeStyle;rounded=0;orthogonalLoop=1;jettySize=auto;html=1;" edge="1" parent="WIyWlLk6GJQsqaUBKTNV-1" source="5X4dIlzUBzXJxATVt42P-1" target="5X4dIlzUBzXJxATVt42P-3">
          <mxGeometry relative="1" as="geometry" />
        </mxCell>
        <mxCell id="5X4dIlzUBzXJxATVt42P-1" value="command==&quot;set&quot;" style="rhombus;whiteSpace=wrap;html=1;" vertex="1" parent="WIyWlLk6GJQsqaUBKTNV-1">
          <mxGeometry x="160" y="970" width="110" height="80" as="geometry" />
        </mxCell>
        <mxCell id="5X4dIlzUBzXJxATVt42P-2" value="" style="edgeStyle=orthogonalEdgeStyle;rounded=0;orthogonalLoop=1;jettySize=auto;html=1;" edge="1" parent="WIyWlLk6GJQsqaUBKTNV-1" source="5X4dIlzUBzXJxATVt42P-3" target="5X4dIlzUBzXJxATVt42P-4">
          <mxGeometry relative="1" as="geometry" />
        </mxCell>
        <mxCell id="5X4dIlzUBzXJxATVt42P-3" value="cin &amp;gt;&amp;gt; index &amp;gt;&amp;gt;&amp;nbsp;&lt;br&gt;chys" style="shape=parallelogram;perimeter=parallelogramPerimeter;whiteSpace=wrap;html=1;fixedSize=1;" vertex="1" parent="WIyWlLk6GJQsqaUBKTNV-1">
          <mxGeometry x="290" y="980" width="120" height="60" as="geometry" />
        </mxCell>
        <mxCell id="5X4dIlzUBzXJxATVt42P-5" style="edgeStyle=orthogonalEdgeStyle;rounded=0;orthogonalLoop=1;jettySize=auto;html=1;" edge="1" parent="WIyWlLk6GJQsqaUBKTNV-1" source="5X4dIlzUBzXJxATVt42P-4">
          <mxGeometry relative="1" as="geometry">
            <mxPoint x="730" y="1009.9999999999998" as="targetPoint" />
          </mxGeometry>
        </mxCell>
        <mxCell id="5X4dIlzUBzXJxATVt42P-4" value="" style="whiteSpace=wrap;html=1;" vertex="1" parent="WIyWlLk6GJQsqaUBKTNV-1">
          <mxGeometry x="430" y="980" width="120" height="60" as="geometry" />
        </mxCell>
        <mxCell id="5X4dIlzUBzXJxATVt42P-7" value="get" style="shape=process;whiteSpace=wrap;html=1;backgroundOutline=1;" vertex="1" parent="WIyWlLk6GJQsqaUBKTNV-1">
          <mxGeometry x="430" y="890" width="120" height="60" as="geometry" />
        </mxCell>
        <mxCell id="5X4dIlzUBzXJxATVt42P-8" value="set" style="shape=process;whiteSpace=wrap;html=1;backgroundOutline=1;" vertex="1" parent="WIyWlLk6GJQsqaUBKTNV-1">
          <mxGeometry x="430" y="980" width="120" height="60" as="geometry" />
        </mxCell>
        <mxCell id="5X4dIlzUBzXJxATVt42P-10" value="print" style="shape=process;whiteSpace=wrap;html=1;backgroundOutline=1;" vertex="1" parent="WIyWlLk6GJQsqaUBKTNV-1">
          <mxGeometry x="310" y="1080" width="120" height="60" as="geometry" />
        </mxCell>
        <mxCell id="5X4dIlzUBzXJxATVt42P-11" value="&lt;div style=&quot;text-align: start; font-family: Menlo, Monaco, &amp;quot;Courier New&amp;quot;, monospace; line-height: 18px; white-space: pre;&quot;&gt;&lt;span style=&quot;background-color: rgb(255, 255, 255);&quot;&gt;T *temp = new T[capacity];&lt;/span&gt;&lt;/div&gt;" style="rounded=0;whiteSpace=wrap;html=1;" vertex="1" parent="WIyWlLk6GJQsqaUBKTNV-1">
          <mxGeometry x="850" y="380" width="200" height="60" as="geometry" />
        </mxCell>
        <mxCell id="5X4dIlzUBzXJxATVt42P-16" style="edgeStyle=orthogonalEdgeStyle;rounded=0;orthogonalLoop=1;jettySize=auto;html=1;exitX=1;exitY=0.5;exitDx=0;exitDy=0;" edge="1" parent="WIyWlLk6GJQsqaUBKTNV-1" source="5X4dIlzUBzXJxATVt42P-13">
          <mxGeometry relative="1" as="geometry">
            <mxPoint x="950" y="1200" as="targetPoint" />
            <Array as="points">
              <mxPoint x="1030" y="980" />
              <mxPoint x="1030" y="1110" />
              <mxPoint x="950" y="1110" />
            </Array>
          </mxGeometry>
        </mxCell>
        <mxCell id="5X4dIlzUBzXJxATVt42P-13" value="i &amp;lt; chys" style="rhombus;whiteSpace=wrap;html=1;" vertex="1" parent="WIyWlLk6GJQsqaUBKTNV-1">
          <mxGeometry x="910" y="940.03" width="80" height="80" as="geometry" />
        </mxCell>
        <mxCell id="5X4dIlzUBzXJxATVt42P-14" style="edgeStyle=orthogonalEdgeStyle;rounded=0;orthogonalLoop=1;jettySize=auto;html=1;" edge="1" parent="WIyWlLk6GJQsqaUBKTNV-1" source="5X4dIlzUBzXJxATVt42P-15">
          <mxGeometry relative="1" as="geometry">
            <mxPoint x="950" y="920.03" as="targetPoint" />
            <Array as="points">
              <mxPoint x="870" y="1070.03" />
              <mxPoint x="870" y="991.03" />
              <mxPoint x="871" y="920.03" />
            </Array>
          </mxGeometry>
        </mxCell>
        <mxCell id="5X4dIlzUBzXJxATVt42P-15" value="&lt;div style=&quot;text-align: start; font-family: Menlo, Monaco, &amp;quot;Courier New&amp;quot;, monospace; line-height: 18px; white-space: pre;&quot;&gt;&lt;span style=&quot;background-color: rgb(255, 255, 255);&quot;&gt;temp[index + i] = elements[i]&lt;/span&gt;&lt;/div&gt;" style="whiteSpace=wrap;html=1;" vertex="1" parent="WIyWlLk6GJQsqaUBKTNV-1">
          <mxGeometry x="890" y="1040.03" width="120" height="60" as="geometry" />
        </mxCell>
        <mxCell id="5X4dIlzUBzXJxATVt42P-18" style="edgeStyle=orthogonalEdgeStyle;rounded=0;orthogonalLoop=1;jettySize=auto;html=1;" edge="1" parent="WIyWlLk6GJQsqaUBKTNV-1" source="5X4dIlzUBzXJxATVt42P-17">
          <mxGeometry relative="1" as="geometry">
            <mxPoint x="950" y="1330" as="targetPoint" />
          </mxGeometry>
        </mxCell>
        <mxCell id="5X4dIlzUBzXJxATVt42P-17" value="&lt;div style=&quot;text-align: start; font-family: Menlo, Monaco, &amp;quot;Courier New&amp;quot;, monospace; line-height: 18px; white-space: pre;&quot;&gt;&lt;div&gt;&lt;span style=&quot;background-color: rgb(255, 255, 255);&quot;&gt;this-&amp;gt;size += chys;&lt;/span&gt;&lt;/div&gt;&lt;div&gt;&lt;span style=&quot;background-color: rgb(255, 255, 255);&quot;&gt;        delete[] data;&lt;/span&gt;&lt;/div&gt;&lt;div&gt;&lt;span style=&quot;background-color: rgb(255, 255, 255);&quot;&gt;        data = temp;&lt;/span&gt;&lt;/div&gt;&lt;/div&gt;" style="rounded=0;whiteSpace=wrap;html=1;" vertex="1" parent="WIyWlLk6GJQsqaUBKTNV-1">
          <mxGeometry x="840" y="1200" width="220" height="60" as="geometry" />
        </mxCell>
        <mxCell id="5X4dIlzUBzXJxATVt42P-19" value="Кінець" style="ellipse;whiteSpace=wrap;html=1;" vertex="1" parent="WIyWlLk6GJQsqaUBKTNV-1">
          <mxGeometry x="890" y="1340" width="120" height="50" as="geometry" />
        </mxCell>
        <mxCell id="5X4dIlzUBzXJxATVt42P-21" style="edgeStyle=orthogonalEdgeStyle;rounded=0;orthogonalLoop=1;jettySize=auto;html=1;" edge="1" parent="WIyWlLk6GJQsqaUBKTNV-1" source="5X4dIlzUBzXJxATVt42P-20">
          <mxGeometry relative="1" as="geometry">
            <mxPoint x="1445" y="480" as="targetPoint" />
          </mxGeometry>
        </mxCell>
        <mxCell id="5X4dIlzUBzXJxATVt42P-20" value="&lt;div style=&quot;font-style: normal; font-variant-caps: normal; font-weight: normal; letter-spacing: normal; text-align: start; text-indent: 0px; text-transform: none; word-spacing: 0px; -webkit-text-stroke-width: 0px; text-decoration: none; font-family: Menlo, Monaco, &amp;quot;Courier New&amp;quot;, monospace; font-size: 12px; line-height: 18px; white-space: pre;&quot;&gt;&lt;div&gt;&lt;span style=&quot;background-color: rgb(255, 255, 255);&quot;&gt;T *temp = new T[capacity];&amp;nbsp;&lt;/span&gt;&lt;/div&gt;&lt;div&gt;&lt;span style=&quot;background-color: rgb(255, 255, 255);&quot;&gt;&lt;span style=&quot;color: rgb(86, 156, 214);&quot;&gt;int&lt;/span&gt;&lt;span style=&quot;color: rgb(204, 204, 204);&quot;&gt; &lt;/span&gt;&lt;span style=&quot;color: rgb(156, 220, 254);&quot;&gt;newSize&lt;/span&gt;&lt;span style=&quot;color: rgb(204, 204, 204);&quot;&gt; &lt;/span&gt;&lt;span style=&quot;color: rgb(212, 212, 212);&quot;&gt;=&lt;/span&gt;&lt;span style=&quot;color: rgb(204, 204, 204);&quot;&gt; &lt;/span&gt;&lt;span style=&quot;color: rgb(181, 206, 168);&quot;&gt;0&lt;/span&gt;&lt;span style=&quot;color: rgb(204, 204, 204);&quot;&gt;;&lt;/span&gt;&lt;/span&gt;&lt;/div&gt;&lt;/div&gt;" style="rounded=0;whiteSpace=wrap;html=1;" vertex="1" parent="WIyWlLk6GJQsqaUBKTNV-1">
          <mxGeometry x="1310" y="370" width="270" height="60" as="geometry" />
        </mxCell>
        <mxCell id="5X4dIlzUBzXJxATVt42P-23" style="edgeStyle=orthogonalEdgeStyle;rounded=0;orthogonalLoop=1;jettySize=auto;html=1;" edge="1" parent="WIyWlLk6GJQsqaUBKTNV-1" source="5X4dIlzUBzXJxATVt42P-22">
          <mxGeometry relative="1" as="geometry">
            <mxPoint x="1445" y="610" as="targetPoint" />
          </mxGeometry>
        </mxCell>
        <mxCell id="5X4dIlzUBzXJxATVt42P-33" style="edgeStyle=orthogonalEdgeStyle;rounded=0;orthogonalLoop=1;jettySize=auto;html=1;" edge="1" parent="WIyWlLk6GJQsqaUBKTNV-1" source="5X4dIlzUBzXJxATVt42P-22">
          <mxGeometry relative="1" as="geometry">
            <mxPoint x="1590" y="920" as="targetPoint" />
          </mxGeometry>
        </mxCell>
        <mxCell id="5X4dIlzUBzXJxATVt42P-22" value="I &amp;lt; this-&amp;gt;size" style="rhombus;whiteSpace=wrap;html=1;" vertex="1" parent="WIyWlLk6GJQsqaUBKTNV-1">
          <mxGeometry x="1405" y="480" width="80" height="80" as="geometry" />
        </mxCell>
        <mxCell id="5X4dIlzUBzXJxATVt42P-26" style="edgeStyle=orthogonalEdgeStyle;rounded=0;orthogonalLoop=1;jettySize=auto;html=1;" edge="1" parent="WIyWlLk6GJQsqaUBKTNV-1" source="5X4dIlzUBzXJxATVt42P-25">
          <mxGeometry relative="1" as="geometry">
            <mxPoint x="1445" y="740" as="targetPoint" />
          </mxGeometry>
        </mxCell>
        <mxCell id="5X4dIlzUBzXJxATVt42P-27" value="True" style="edgeLabel;html=1;align=center;verticalAlign=middle;resizable=0;points=[];" vertex="1" connectable="0" parent="5X4dIlzUBzXJxATVt42P-26">
          <mxGeometry x="-0.406" y="1" relative="1" as="geometry">
            <mxPoint as="offset" />
          </mxGeometry>
        </mxCell>
        <mxCell id="5X4dIlzUBzXJxATVt42P-25" value="&lt;div style=&quot;text-align: start; color: rgb(204, 204, 204); background-color: rgb(31, 31, 31); font-family: Menlo, Monaco, &amp;quot;Courier New&amp;quot;, monospace; line-height: 18px; white-space: pre;&quot;&gt;&lt;span style=&quot;color: rgb(156, 220, 254);&quot;&gt;i&lt;/span&gt; &lt;span style=&quot;color: rgb(212, 212, 212);&quot;&gt;&amp;lt;&lt;/span&gt; &lt;span style=&quot;color: rgb(156, 220, 254);&quot;&gt;index&lt;/span&gt; &lt;span style=&quot;color: rgb(212, 212, 212);&quot;&gt;||&lt;/span&gt; &lt;span style=&quot;color: rgb(156, 220, 254);&quot;&gt;i&lt;/span&gt; &lt;span style=&quot;color: rgb(212, 212, 212);&quot;&gt;&amp;gt;=&lt;/span&gt; &lt;span style=&quot;color: rgb(156, 220, 254);&quot;&gt;index&lt;/span&gt; &lt;span style=&quot;color: rgb(212, 212, 212);&quot;&gt;+&lt;/span&gt; &lt;span style=&quot;color: rgb(156, 220, 254);&quot;&gt;chys&lt;/span&gt;&lt;/div&gt;" style="rhombus;whiteSpace=wrap;html=1;" vertex="1" parent="WIyWlLk6GJQsqaUBKTNV-1">
          <mxGeometry x="1405" y="610" width="80" height="80" as="geometry" />
        </mxCell>
        <mxCell id="5X4dIlzUBzXJxATVt42P-29" style="edgeStyle=orthogonalEdgeStyle;rounded=0;orthogonalLoop=1;jettySize=auto;html=1;" edge="1" parent="WIyWlLk6GJQsqaUBKTNV-1" source="5X4dIlzUBzXJxATVt42P-28">
          <mxGeometry relative="1" as="geometry">
            <mxPoint x="1280" y="880" as="targetPoint" />
            <Array as="points">
              <mxPoint x="1445" y="840" />
              <mxPoint x="1446" y="840" />
            </Array>
          </mxGeometry>
        </mxCell>
        <mxCell id="5X4dIlzUBzXJxATVt42P-28" value="&lt;div style=&quot;text-align: start; color: rgb(204, 204, 204); background-color: rgb(31, 31, 31); font-family: Menlo, Monaco, &amp;quot;Courier New&amp;quot;, monospace; line-height: 18px; white-space: pre;&quot;&gt;&lt;div&gt; &lt;span style=&quot;color: rgb(156, 220, 254);&quot;&gt;temp&lt;/span&gt;[&lt;span style=&quot;color: rgb(156, 220, 254);&quot;&gt;newSize&lt;/span&gt;] &lt;span style=&quot;color: rgb(212, 212, 212);&quot;&gt;=&lt;/span&gt; &lt;span style=&quot;color: rgb(156, 220, 254);&quot;&gt;data&lt;/span&gt;[&lt;span style=&quot;color: rgb(156, 220, 254);&quot;&gt;i&lt;/span&gt;];&lt;/div&gt;&lt;div&gt;                &lt;span style=&quot;color: rgb(156, 220, 254);&quot;&gt;newSize&lt;/span&gt;&lt;span style=&quot;color: rgb(212, 212, 212);&quot;&gt;++&lt;/span&gt;;&lt;/div&gt;&lt;/div&gt;" style="rounded=0;whiteSpace=wrap;html=1;" vertex="1" parent="WIyWlLk6GJQsqaUBKTNV-1">
          <mxGeometry x="1385" y="740" width="120" height="60" as="geometry" />
        </mxCell>
        <mxCell id="5X4dIlzUBzXJxATVt42P-31" value="" style="endArrow=classic;html=1;rounded=0;" edge="1" parent="WIyWlLk6GJQsqaUBKTNV-1">
          <mxGeometry width="50" height="50" relative="1" as="geometry">
            <mxPoint x="1280" y="880" as="sourcePoint" />
            <mxPoint x="1280" y="460" as="targetPoint" />
          </mxGeometry>
        </mxCell>
        <mxCell id="5X4dIlzUBzXJxATVt42P-32" value="" style="endArrow=classic;html=1;rounded=0;" edge="1" parent="WIyWlLk6GJQsqaUBKTNV-1">
          <mxGeometry width="50" height="50" relative="1" as="geometry">
            <mxPoint x="1280" y="460" as="sourcePoint" />
            <mxPoint x="1440" y="460" as="targetPoint" />
          </mxGeometry>
        </mxCell>
        <mxCell id="5X4dIlzUBzXJxATVt42P-34" value="" style="endArrow=classic;html=1;rounded=0;" edge="1" parent="WIyWlLk6GJQsqaUBKTNV-1">
          <mxGeometry width="50" height="50" relative="1" as="geometry">
            <mxPoint x="1590" y="920" as="sourcePoint" />
            <mxPoint x="1430" y="920" as="targetPoint" />
          </mxGeometry>
        </mxCell>
        <mxCell id="5X4dIlzUBzXJxATVt42P-35" value="" style="endArrow=classic;html=1;rounded=0;" edge="1" parent="WIyWlLk6GJQsqaUBKTNV-1">
          <mxGeometry width="50" height="50" relative="1" as="geometry">
            <mxPoint x="1440" y="920" as="sourcePoint" />
            <mxPoint x="1440" y="970" as="targetPoint" />
          </mxGeometry>
        </mxCell>
        <mxCell id="5X4dIlzUBzXJxATVt42P-37" style="edgeStyle=orthogonalEdgeStyle;rounded=0;orthogonalLoop=1;jettySize=auto;html=1;" edge="1" parent="WIyWlLk6GJQsqaUBKTNV-1" source="5X4dIlzUBzXJxATVt42P-36">
          <mxGeometry relative="1" as="geometry">
            <mxPoint x="1440" y="1090" as="targetPoint" />
          </mxGeometry>
        </mxCell>
        <mxCell id="5X4dIlzUBzXJxATVt42P-36" value="&lt;div style=&quot;text-align: start; color: rgb(204, 204, 204); background-color: rgb(31, 31, 31); font-family: Menlo, Monaco, &amp;quot;Courier New&amp;quot;, monospace; line-height: 18px; white-space: pre;&quot;&gt;&lt;div&gt;&lt;span style=&quot;color: rgb(86, 156, 214);&quot;&gt;this&lt;/span&gt;-&amp;gt;&lt;span style=&quot;color: rgb(156, 220, 254);&quot;&gt;size&lt;/span&gt; &lt;span style=&quot;color: rgb(212, 212, 212);&quot;&gt;-=&lt;/span&gt; &lt;span style=&quot;color: rgb(156, 220, 254);&quot;&gt;chys&lt;/span&gt;;&lt;/div&gt;&lt;div&gt;        &lt;span style=&quot;color: rgb(197, 134, 192);&quot;&gt;delete[]&lt;/span&gt; &lt;span style=&quot;color: rgb(156, 220, 254);&quot;&gt;data&lt;/span&gt;;&lt;/div&gt;&lt;div&gt;        &lt;span style=&quot;color: rgb(156, 220, 254);&quot;&gt;data&lt;/span&gt; &lt;span style=&quot;color: rgb(212, 212, 212);&quot;&gt;=&lt;/span&gt; &lt;span style=&quot;color: rgb(156, 220, 254);&quot;&gt;temp&lt;/span&gt;;&lt;/div&gt;&lt;/div&gt;" style="rounded=0;whiteSpace=wrap;html=1;" vertex="1" parent="WIyWlLk6GJQsqaUBKTNV-1">
          <mxGeometry x="1380" y="970" width="120" height="60" as="geometry" />
        </mxCell>
        <mxCell id="5X4dIlzUBzXJxATVt42P-38" value="End" style="ellipse;whiteSpace=wrap;html=1;" vertex="1" parent="WIyWlLk6GJQsqaUBKTNV-1">
          <mxGeometry x="1380" y="1089" width="120" height="80" as="geometry" />
        </mxCell>
        <mxCell id="5X4dIlzUBzXJxATVt42P-42" style="edgeStyle=orthogonalEdgeStyle;rounded=0;orthogonalLoop=1;jettySize=auto;html=1;" edge="1" parent="WIyWlLk6GJQsqaUBKTNV-1" source="5X4dIlzUBzXJxATVt42P-40">
          <mxGeometry relative="1" as="geometry">
            <mxPoint x="1995" y="700" as="targetPoint" />
            <Array as="points">
              <mxPoint x="1995" y="695" />
              <mxPoint x="1995" y="695" />
            </Array>
          </mxGeometry>
        </mxCell>
        <mxCell id="5X4dIlzUBzXJxATVt42P-40" value="print" style="ellipse;whiteSpace=wrap;html=1;" vertex="1" parent="WIyWlLk6GJQsqaUBKTNV-1">
          <mxGeometry x="1935.5" y="570" width="120" height="80" as="geometry" />
        </mxCell>
        <mxCell id="5X4dIlzUBzXJxATVt42P-41" value="Кінець" style="ellipse;whiteSpace=wrap;html=1;" vertex="1" parent="WIyWlLk6GJQsqaUBKTNV-1">
          <mxGeometry x="1700" y="695" width="145" height="90" as="geometry" />
        </mxCell>
        <mxCell id="5X4dIlzUBzXJxATVt42P-45" style="edgeStyle=orthogonalEdgeStyle;rounded=0;orthogonalLoop=1;jettySize=auto;html=1;" edge="1" parent="WIyWlLk6GJQsqaUBKTNV-1" source="5X4dIlzUBzXJxATVt42P-43">
          <mxGeometry relative="1" as="geometry">
            <mxPoint x="1960" y="840" as="targetPoint" />
          </mxGeometry>
        </mxCell>
        <mxCell id="5X4dIlzUBzXJxATVt42P-54" style="edgeStyle=orthogonalEdgeStyle;rounded=0;orthogonalLoop=1;jettySize=auto;html=1;" edge="1" parent="WIyWlLk6GJQsqaUBKTNV-1" source="5X4dIlzUBzXJxATVt42P-43">
          <mxGeometry relative="1" as="geometry">
            <mxPoint x="1850" y="740" as="targetPoint" />
          </mxGeometry>
        </mxCell>
        <mxCell id="5X4dIlzUBzXJxATVt42P-43" value="I&amp;lt; this -&amp;gt;size" style="rhombus;whiteSpace=wrap;html=1;" vertex="1" parent="WIyWlLk6GJQsqaUBKTNV-1">
          <mxGeometry x="1955.5" y="700" width="80" height="80" as="geometry" />
        </mxCell>
        <mxCell id="5X4dIlzUBzXJxATVt42P-46" style="edgeStyle=orthogonalEdgeStyle;rounded=0;orthogonalLoop=1;jettySize=auto;html=1;exitX=0.5;exitY=1;exitDx=0;exitDy=0;" edge="1" parent="WIyWlLk6GJQsqaUBKTNV-1" source="5X4dIlzUBzXJxATVt42P-43">
          <mxGeometry relative="1" as="geometry">
            <mxPoint x="2050" y="840" as="targetPoint" />
            <mxPoint x="2046" y="800" as="sourcePoint" />
            <Array as="points">
              <mxPoint x="1996" y="810" />
              <mxPoint x="2050" y="810" />
              <mxPoint x="2050" y="840" />
            </Array>
          </mxGeometry>
        </mxCell>
        <mxCell id="5X4dIlzUBzXJxATVt42P-47" value="cout &amp;lt;&amp;lt; data[i]" style="rounded=0;whiteSpace=wrap;html=1;" vertex="1" parent="WIyWlLk6GJQsqaUBKTNV-1">
          <mxGeometry x="1900" y="840" width="110" height="50" as="geometry" />
        </mxCell>
        <mxCell id="5X4dIlzUBzXJxATVt42P-49" style="edgeStyle=orthogonalEdgeStyle;rounded=0;orthogonalLoop=1;jettySize=auto;html=1;" edge="1" parent="WIyWlLk6GJQsqaUBKTNV-1" source="5X4dIlzUBzXJxATVt42P-48">
          <mxGeometry relative="1" as="geometry">
            <mxPoint x="2130" y="870" as="targetPoint" />
          </mxGeometry>
        </mxCell>
        <mxCell id="5X4dIlzUBzXJxATVt42P-55" value="True" style="edgeLabel;html=1;align=center;verticalAlign=middle;resizable=0;points=[];" vertex="1" connectable="0" parent="5X4dIlzUBzXJxATVt42P-49">
          <mxGeometry x="-0.5644" y="-1" relative="1" as="geometry">
            <mxPoint as="offset" />
          </mxGeometry>
        </mxCell>
        <mxCell id="5X4dIlzUBzXJxATVt42P-48" value="I&amp;lt; size-1" style="rhombus;whiteSpace=wrap;html=1;" vertex="1" parent="WIyWlLk6GJQsqaUBKTNV-1">
          <mxGeometry x="2020" y="840" width="60" height="60" as="geometry" />
        </mxCell>
        <mxCell id="5X4dIlzUBzXJxATVt42P-51" style="edgeStyle=orthogonalEdgeStyle;rounded=0;orthogonalLoop=1;jettySize=auto;html=1;" edge="1" parent="WIyWlLk6GJQsqaUBKTNV-1" source="5X4dIlzUBzXJxATVt42P-50">
          <mxGeometry relative="1" as="geometry">
            <mxPoint x="2280" y="670" as="targetPoint" />
          </mxGeometry>
        </mxCell>
        <mxCell id="5X4dIlzUBzXJxATVt42P-50" value="cout &amp;lt;&amp;lt; separator" style="rounded=0;whiteSpace=wrap;html=1;" vertex="1" parent="WIyWlLk6GJQsqaUBKTNV-1">
          <mxGeometry x="2120" y="840" width="120" height="60" as="geometry" />
        </mxCell>
        <mxCell id="5X4dIlzUBzXJxATVt42P-52" value="" style="endArrow=classic;html=1;rounded=0;" edge="1" parent="WIyWlLk6GJQsqaUBKTNV-1">
          <mxGeometry width="50" height="50" relative="1" as="geometry">
            <mxPoint x="2280" y="670" as="sourcePoint" />
            <mxPoint x="2000" y="670" as="targetPoint" />
          </mxGeometry>
        </mxCell>
      </root>
    </mxGraphModel>
  </diagram>
</mxfile>
